<svg xmlns="http://www.w3.org/2000/svg" xmlns:xlink="http://www.w3.org/1999/xlink" viewBox="0 0 80.406 20" overflow="visible"><g><path d="M 80.406 18.252 C 80.406 19.217 79.624 19.999 78.659 19.999 C 77.694 19.999 76.912 19.217 76.912 18.252 C 76.912 17.288 77.694 16.505 78.659 16.505 C 79.624 16.505 80.406 17.288 80.406 18.252 Z M 19.616 5.788 L 21.769 5.788 L 21.769 15.754 L 19.616 15.754 L 19.616 14.479 C 18.965 15.502 17.935 16.013 16.526 16.013 C 15.383 16.013 14.46 15.648 13.755 14.917 C 13.051 14.186 12.699 13.183 12.699 11.907 L 12.699 5.788 L 14.852 5.788 L 14.852 11.688 C 14.852 12.432 15.051 13.003 15.45 13.402 C 15.848 13.801 16.393 14 17.084 14 C 17.842 14 18.453 13.768 18.918 13.303 C 19.383 12.824 19.616 12.1 19.616 11.13 Z M 26.439 7.462 C 26.984 6.226 28.007 5.608 29.508 5.608 L 29.508 7.941 C 28.684 7.887 27.967 8.087 27.356 8.538 C 26.744 8.977 26.439 9.708 26.439 10.731 L 26.439 15.754 L 24.286 15.754 L 24.286 5.788 L 26.439 5.788 Z M 37.856 5.788 L 40.208 5.788 L 36.321 15.754 L 33.83 15.754 L 29.943 5.788 L 32.295 5.788 L 35.086 13.362 L 37.856 5.788 Z M 49.076 5.788 L 51.229 5.788 L 51.229 15.754 L 49.076 15.754 L 49.076 14.319 C 48.265 15.449 47.102 16.013 45.587 16.013 C 44.219 16.013 43.049 15.508 42.079 14.498 C 41.109 13.475 40.624 12.233 40.624 10.771 C 40.624 9.296 41.109 8.053 42.079 7.044 C 43.049 6.034 44.219 5.529 45.587 5.529 C 47.102 5.529 48.265 6.087 49.076 7.203 Z M 43.674 13.063 C 44.272 13.661 45.023 13.96 45.926 13.96 C 46.83 13.96 47.581 13.661 48.179 13.063 C 48.777 12.452 49.076 11.688 49.076 10.771 C 49.076 9.854 48.777 9.097 48.179 8.499 C 47.581 7.887 46.83 7.582 45.926 7.582 C 45.023 7.582 44.272 7.887 43.674 8.499 C 43.076 9.097 42.777 9.854 42.777 10.771 C 42.777 11.688 43.076 12.452 43.674 13.063 Z M 58.98 5.529 C 60.123 5.529 61.047 5.894 61.751 6.625 C 62.455 7.356 62.807 8.359 62.807 9.635 L 62.807 15.754 L 60.655 15.754 L 60.655 9.854 C 60.655 9.11 60.455 8.538 60.057 8.14 C 59.658 7.741 59.113 7.542 58.422 7.542 C 57.665 7.542 57.053 7.781 56.588 8.259 C 56.123 8.725 55.89 9.442 55.89 10.412 L 55.89 15.754 L 53.738 15.754 L 53.738 5.788 L 55.89 5.788 L 55.89 7.063 C 56.542 6.04 57.572 5.529 58.98 5.529 Z M 73.058 5.788 L 75.171 5.788 L 75.171 15.296 C 75.171 16.811 74.673 17.973 73.676 18.784 C 72.68 19.595 71.471 20 70.049 20 C 67.75 20 66.175 19.196 65.325 17.588 L 67.179 16.512 C 67.697 17.535 68.666 18.047 70.088 18.047 C 71.019 18.047 71.743 17.801 72.261 17.309 C 72.793 16.831 73.058 16.16 73.058 15.296 L 73.058 14.08 C 72.248 15.236 71.092 15.814 69.591 15.814 C 68.182 15.814 66.992 15.316 66.022 14.319 C 65.052 13.309 64.567 12.093 64.567 10.671 C 64.567 9.249 65.052 8.04 66.022 7.044 C 66.992 6.034 68.182 5.529 69.591 5.529 C 71.092 5.529 72.248 6.107 73.058 7.263 Z M 67.617 12.904 C 68.228 13.502 68.985 13.801 69.889 13.801 C 70.793 13.801 71.544 13.502 72.142 12.904 C 72.753 12.306 73.058 11.562 73.058 10.671 C 73.058 9.781 72.753 9.037 72.142 8.439 C 71.544 7.841 70.793 7.542 69.889 7.542 C 68.985 7.542 68.228 7.841 67.617 8.439 C 67.019 9.037 66.72 9.781 66.72 10.671 C 66.72 11.562 67.019 12.306 67.617 12.904 Z" fill="rgb(16,16,16)"></path><path d="M 0 4.315 C 0 3.529 0.21 2.792 0.578 2.158 C 0.964 1.492 1.52 0.94 2.189 0.56 C 2.817 0.204 3.542 0 4.315 0 C 5.092 0 5.821 0.206 6.45 0.565 L 9.155 2.158 L 9.146 2.158 C 9.186 2.178 9.225 2.2 9.263 2.222 L 9.358 2.277 C 9.973 2.652 10.469 3.193 10.788 3.839 C 11.043 4.357 11.176 4.927 11.175 5.505 C 11.175 5.667 11.165 5.829 11.144 5.989 C 11.092 6.4 10.971 6.8 10.788 7.172 C 10.497 7.759 10.06 8.262 9.518 8.63 C 9.25 8.812 8.96 8.959 8.655 9.067 L 4.11 10.543 C 4.038 10.325 4.002 10.097 4.002 9.868 C 4.001 9.425 4.138 8.993 4.393 8.63 L 4.393 8.629 C 4.622 8.303 4.937 8.046 5.303 7.887 L 7.852 7.059 C 7.884 7.05 7.915 7.04 7.946 7.029 C 8.245 6.921 8.506 6.727 8.696 6.473 C 8.905 6.193 9.018 5.854 9.017 5.505 C 9.017 5.105 8.872 4.738 8.63 4.455 L 8.628 4.453 C 8.504 4.307 8.355 4.185 8.188 4.092 L 5.442 2.475 C 5.419 2.461 5.396 2.448 5.373 2.435 L 5.281 2.38 L 5.276 2.383 C 4.978 2.234 4.649 2.157 4.315 2.158 C 3.124 2.158 2.158 3.124 2.158 4.315 L 2.158 15.759 L 0 15.759 Z" fill="rgb(16,16,16)"></path></g></svg>