<svg xmlns="http://www.w3.org/2000/svg" xmlns:xlink="http://www.w3.org/1999/xlink" viewBox="0 0 104.504 54.956" overflow="visible"><path d="M 90.238 21.927 C 91.651 21.875 91.74 22.081 92.879 22.772 C 93.266 23.006 93.488 23 93.898 23.377 C 94.47 24.651 93.391 28.512 93.374 30.414 L 93.374 30.567 C 96.184 29.221 100.192 27.565 103.329 27.818 C 103.696 27.847 104.168 27.928 104.387 28.261 C 104.515 28.454 104.534 28.731 104.464 28.948 C 104.385 29.191 104.201 29.365 103.96 29.438 C 103.024 29.725 101.903 29.73 100.928 29.907 C 99.054 30.249 97.22 30.891 95.468 31.626 C 94.499 32.033 93.316 32.541 92.732 33.466 C 92.177 34.347 90.924 41.016 90.508 42.635 C 90.02 44.504 89.412 46.341 88.687 48.133 C 87.491 51.055 84.693 56.273 80.562 54.65 C 78.423 53.708 77.956 51.3 78.067 49.185 C 78.393 43.053 83.324 37.993 87.754 34.22 C 88.609 33.492 90.375 32.639 90.844 31.747 C 91.167 31.135 91.846 28.056 91.607 27.445 C 90.322 27.509 87.646 32.286 84.681 29.505 C 83.614 30.33 81.944 31.722 80.508 31.051 C 79.26 30.468 78.831 28.594 78.414 27.403 C 76.658 28.418 75.544 30.453 73.996 31.698 C 73.528 32.109 72.596 32.215 72.334 31.514 C 71.926 30.426 73.043 28.512 73.437 27.486 C 71.513 28.751 69.269 33.495 66.57 31.76 C 66.066 31.436 65.653 30.766 65.315 30.269 C 63.582 31.436 61.377 35.073 59.148 32.489 C 58.825 30.909 59.228 29.879 59.78 28.392 C 58.581 28.225 58.399 28.214 57.266 27.753 C 56.384 29.077 53.797 34.606 52.458 34.947 C 52.06 35.048 51.735 34.817 51.406 34.63 C 50.684 33.162 50.708 31.858 50.668 30.258 C 49.756 31.063 48.054 33.677 46.968 34.87 C 46.284 35.504 45.419 36.346 44.361 36.046 C 43.206 35.732 42.738 34.905 42.671 33.786 C 42.553 31.805 43.535 30.251 44.184 28.473 L 44.214 28.375 C 43.621 28.404 43.029 28.442 42.438 28.49 C 41.288 30.395 39.31 33.588 37.265 34.542 C 35.503 35.364 34.758 33.279 34.351 32.032 C 33.577 33.312 32.196 35.061 30.811 35.724 C 29.052 36.431 28.583 34.682 28.539 33.365 C 28.499 32.178 29.904 25.871 31.826 26.947 C 32.627 28.05 29.117 32.928 30.36 33.636 C 32.095 33.595 34.872 27.475 36.241 27.516 C 37.482 28.08 36.168 31.74 36.569 32.548 C 37.631 32.622 40.121 29.009 40.641 28.029 C 41.26 26.862 41.05 22.76 43.251 23.455 C 43.753 23.613 43.594 25.726 43.656 26.217 C 44.107 26.739 45.984 24.825 46.625 26.063 C 47.499 27.753 43.737 32.35 44.717 33.791 C 44.891 33.837 45.014 33.901 45.19 33.823 C 46.61 33.19 50.329 26.79 51.196 26.372 C 51.431 26.258 51.534 26.307 51.768 26.394 C 52.738 27.439 52.252 30.474 52.477 32.179 L 52.499 32.34 C 53.562 30.689 54.497 28.969 55.428 27.242 C 55.808 26.538 56.438 25.125 57.237 24.848 C 57.944 24.695 58.448 25.934 58.978 26.122 C 61.881 27.149 64.57 22.783 67.628 24.606 C 67.847 24.736 67.858 24.893 67.883 25.107 C 67.637 25.727 67.295 25.793 66.679 26.075 C 66.79 26.152 67.367 26.528 67.418 26.614 C 67.935 27.488 67.278 28.455 67.238 29.326 C 67.223 29.652 67.451 29.796 67.634 29.951 C 69.156 30.217 72.436 24.648 74.427 23.908 C 74.725 23.797 75.083 23.759 75.376 23.912 C 76.602 24.551 75.203 26.532 75.438 27.375 C 75.992 27.136 77.861 24.857 79.173 24.792 C 81.08 24.698 80.076 27.981 81.252 28.975 C 81.805 29.171 82.469 28.77 82.89 28.418 C 85.828 25.959 85.992 22.876 90.238 21.927 Z M 80.976 52.532 C 81.361 52.765 81.484 52.831 81.904 52.986 C 83.867 52.462 84.811 51.295 85.815 49.576 C 86.407 48.546 86.913 47.468 87.326 46.355 C 87.786 45.124 90.525 36.072 90.208 35.094 C 90.017 35.027 90.021 35.015 89.825 34.992 C 85.457 38.277 80.783 43.072 79.91 48.683 C 79.694 50.065 79.848 51.566 80.976 52.532 Z M 87.479 27.923 C 88.471 27.424 91.522 25.323 91.314 24.176 C 91.045 23.919 90.885 23.893 90.473 23.84 C 89.061 24.116 88.078 25.052 87.266 26.182 C 86.951 26.62 86.308 27.715 86.865 28.122 C 87.2 28.085 87.184 28.087 87.479 27.923 Z M 61.1 31.278 C 62.988 30.281 64.735 28.109 66 26.429 L 66.02 26.268 L 65.9 26.188 C 64.408 26.284 63.177 27.273 62.19 28.322 C 61.704 28.839 60.413 30.668 61.1 31.278 Z M 25.552 0.051 C 26.252 -0.052 28.119 0.016 28.802 0.126 C 31.806 0.61 34.288 1.387 36.193 3.853 C 37.972 6.154 38.367 9.421 37.917 12.227 C 36.943 18.318 32.412 23.969 27.578 27.618 C 24.861 29.669 21.081 32.046 17.611 32.467 C 16.879 32.556 15.369 32.258 14.574 32.15 C 13.924 33.782 13.616 35.52 13.174 37.213 C 12.564 39.515 11.959 41.819 11.415 44.137 C 11.256 44.814 11.042 46.24 10.236 46.399 C 9.804 46.484 9.446 46.167 9.118 45.929 C 9.107 44.001 9.42 41.871 9.545 39.909 C 9.806 36.235 9.838 32.548 9.64 28.87 C 9.517 26.773 9.073 24.594 8.65 22.539 C 8.481 21.722 8.067 20.784 8.915 20.262 C 10.292 20.12 10.432 22.381 10.63 23.394 C 11.118 25.885 11.245 28.341 11.302 30.865 C 11.341 32.613 11.135 34.934 11.344 36.619 L 11.361 36.748 C 12.134 35.148 12.632 32.057 13.074 30.274 C 13.522 28.461 14.056 26.669 14.529 24.865 L 16.666 16.384 C 16.998 15.081 18.111 10.24 18.544 9.293 C 19.141 8.082 20.623 8.608 20.329 9.975 C 19.91 11.923 19.352 13.849 18.79 15.76 C 17.954 18.603 17.221 21.455 16.524 24.334 C 16.086 26.156 15.418 28.189 15.129 30.002 C 17.834 31.222 20.949 29.632 23.29 28.217 C 28.909 24.819 34.056 19.621 35.734 13.129 C 36.36 10.709 36.388 7.876 35.017 5.69 C 33.089 2.654 29.529 2.155 26.225 2.199 C 19.986 2.282 13.9 4.367 8.612 7.611 C 6.235 9.198 3.419 10.991 2.071 13.588 C 1.628 14.441 2.114 15.382 1.301 15.885 C 1.035 15.905 0.687 15.829 0.527 15.62 C -1.891 12.477 4.691 7.894 6.563 6.642 C 12.207 2.832 18.753 0.559 25.552 0.051 Z" fill="rgb(0,0,0)"></path></svg>